<svg width="15" height="14" viewBox="0 0 15 14" fill="none" xmlns="http://www.w3.org/2000/svg">
<path d="M8.33333 7.64453L9.72889 7.64453L7.5 10.1829L5.27112 7.64453L6.66667 7.64453L7.16667 7.64453L7.16667 7.14453L7.16667 0.811523L7.83333 0.811523L7.83333 7.14453L7.83333 7.64453L8.33333 7.64453ZM13.3333 5.12608L10.5 5.12608L10.5 4.60764L13.3333 4.60764C14.0225 4.60764 14.5 5.10642 14.5 5.62608L14.5 12.4591C14.5 12.9788 14.0225 13.4775 13.3333 13.4775L1.66667 13.4775C0.977489 13.4775 0.500001 12.9788 0.500001 12.4591L0.500002 5.62608C0.500002 5.10642 0.977489 4.60764 1.66667 4.60764L4.5 4.60764L4.5 5.12608L1.66667 5.12608L1.16667 5.12608L1.16667 5.62608L1.16667 12.4591L1.16667 12.9591L1.66667 12.9591L13.3333 12.9591L13.8333 12.9591L13.8333 12.4591L13.8333 5.62608L13.8333 5.12608L13.3333 5.12608Z" fill="#92B676" stroke="white"/>
</svg>
