<svg width="15" height="14" viewBox="0 0 15 14" fill="none" xmlns="http://www.w3.org/2000/svg">
<path d="M13.3333 4.85558L10.5 4.85558L10.5 4.33713L13.3333 4.33713C14.0225 4.33713 14.5 4.83591 14.5 5.35558L14.5 12.1886C14.5 12.7082 14.0225 13.207 13.3333 13.207L1.66667 13.207C0.97749 13.207 0.500001 12.7082 0.500001 12.1886L0.500002 5.35558C0.500002 4.83591 0.97749 4.33713 1.66667 4.33713L4.5 4.33713L4.5 4.85558L1.66667 4.85558L1.16667 4.85558L1.16667 5.35558L1.16667 12.1886L1.16667 12.6886L1.66667 12.6886L13.3333 12.6886L13.8333 12.6886L13.8333 12.1886L13.8333 5.35558L13.8333 4.85558L13.3333 4.85558ZM5.27111 7.37402L6.66667 7.37402L7.16667 7.37402L7.16667 6.87402L7.16667 0.541015L7.83333 0.541015L7.83333 6.87402L7.83333 7.37402L8.33333 7.37402L9.72889 7.37402L7.5 9.91236L5.27111 7.37402Z" fill="#92B676" stroke="#92B676"/>
</svg>
